<svg width="273" height="216" viewBox="0 0 273 216" fill="none" xmlns="http://www.w3.org/2000/svg">
<path d="M239.104 215.263H33.9188C25.0212 215.214 16.5044 211.417 10.232 204.705C3.95963 197.992 0.442567 188.91 0.450453 179.446V35.7999C0.496794 26.3765 4.03873 17.3535 10.3061 10.693C16.5734 4.03247 25.0594 0.272955 33.9188 0.231934H78.4553C78.9303 0.231934 79.3858 0.432625 79.7216 0.789857C80.0575 1.14709 80.2461 1.6316 80.2461 2.1368C80.2461 2.642 80.0575 3.12652 79.7216 3.48375C79.3858 3.84098 78.9303 4.04167 78.4553 4.04167H33.9188C25.9558 4.04994 18.3212 7.41828 12.6905 13.4074C7.05986 19.3966 3.89318 27.5173 3.88541 35.9872V179.633C3.89318 188.103 7.05986 196.224 12.6905 202.213C18.3212 208.202 25.9558 211.57 33.9188 211.579H239.104C243.061 211.574 246.979 210.739 250.633 209.121C254.287 207.502 257.604 205.132 260.394 202.147C263.185 199.161 265.393 195.619 266.894 191.723C268.394 187.828 269.156 183.655 269.137 179.446V126.172C269.137 125.667 269.326 125.182 269.662 124.825C269.997 124.468 270.453 124.267 270.928 124.267C271.403 124.267 271.858 124.468 272.194 124.825C272.53 125.182 272.719 125.667 272.719 126.172V179.446C272.719 188.934 269.179 198.035 262.877 204.751C256.574 211.466 248.024 215.247 239.104 215.263Z" fill="#F4F4F4"/>
</svg>
