  <svg width="345" height="216" viewBox="0 0 345 216" fill="none" xmlns="http://www.w3.org/2000/svg">
    <path d="M327.733 142.478L325.113 139.695L338.899 126.84L325.113 113.985L327.733 111.201L344.513 126.84L327.733 142.478Z" fill="#F4F4F4"/>
    <path d="M237.997 215.974H34.348C29.9628 215.969 25.6213 215.04 21.5713 213.237C17.5214 211.434 13.8424 208.795 10.7443 205.468C7.64619 202.141 5.18971 198.193 3.5151 193.849C1.8405 189.505 0.98056 184.85 0.984388 180.149V36.4779C1.03823 27.0284 4.57615 17.9851 10.8264 11.3207C17.0766 4.6563 25.5319 0.911665 34.348 0.903595H78.551C79.0224 0.903595 79.4745 1.10432 79.8079 1.46162C80.1412 1.81891 80.3285 2.30351 80.3285 2.80881C80.3285 3.3141 80.1412 3.7987 79.8079 4.15599C79.4745 4.51329 79.0224 4.71402 78.551 4.71402H34.348C26.4446 4.72229 18.8671 8.09123 13.2786 14.0815C7.69002 20.0717 4.547 28.1938 4.53929 36.6653V180.337C4.547 188.808 7.69002 196.93 13.2786 202.921C18.8671 208.911 26.4446 212.28 34.348 212.288H237.997C241.925 212.284 245.814 211.449 249.44 209.83C253.066 208.211 256.359 205.84 259.128 202.854C261.898 199.868 264.09 196.326 265.579 192.429C267.068 188.533 267.825 184.36 267.805 180.149V126.866C267.802 126.613 267.845 126.362 267.932 126.127C268.02 125.893 268.15 125.679 268.316 125.499C268.481 125.318 268.678 125.175 268.896 125.078C269.113 124.98 269.347 124.93 269.583 124.93H338.495C338.931 124.989 339.332 125.217 339.622 125.571C339.913 125.924 340.073 126.379 340.073 126.85C340.073 127.321 339.913 127.776 339.622 128.13C339.332 128.484 338.931 128.712 338.495 128.771H271.331V180.149C271.331 189.634 267.822 198.732 261.573 205.448C255.324 212.164 246.846 215.949 237.997 215.974Z" fill="#F4F4F4"/>
    </svg>